# 3ds Max Wavefront OBJ Exporter v0.99 - (c)2007 guruware
# ì¬‚µ‚½ƒtƒ@ƒCƒ‹ : 20.12.2023 11:36:52

#
# object MoveZ
#

v  1.8498 0.0000 0.6733
v  1.5080 0.0000 1.2653
v  0.9843 0.0000 1.7048
v  0.3418 0.0000 1.9386
v  -0.3418 0.0000 1.9386
v  -0.9843 0.0000 1.7048
v  -1.5080 0.0000 1.2653
v  -1.8498 0.0000 0.6733
v  -1.9685 0.0000 -0.0000
v  -1.8498 0.0000 -0.6733
v  -1.5080 0.0000 -1.2653
v  -0.9843 0.0000 -1.7048
v  -0.3418 0.0000 -1.9386
v  0.3418 0.0000 -1.9386
v  0.9843 0.0000 -1.7048
v  1.5080 0.0000 -1.2653
v  1.8498 0.0000 -0.6733
v  1.9685 0.0000 -0.0000
v  1.8498 196.8504 -0.6733
v  1.9685 196.8504 -0.0000
v  1.5080 196.8504 -1.2653
v  0.9843 196.8504 -1.7048
v  0.3418 196.8504 -1.9386
v  -0.3418 196.8504 -1.9386
v  -0.9843 196.8504 -1.7048
v  -1.5080 196.8504 -1.2653
v  -1.8498 196.8504 -0.6733
v  -1.9685 196.8504 -0.0000
v  -1.8498 196.8504 0.6733
v  -1.5080 196.8504 1.2653
v  -0.9843 196.8504 1.7048
v  -0.3418 196.8504 1.9386
v  0.3418 196.8504 1.9386
v  0.9843 196.8504 1.7048
v  1.5080 196.8504 1.2653
v  1.8498 196.8504 0.6733
v  9.2489 196.8504 3.3663
v  7.5398 196.8504 6.3267
v  4.9213 196.8504 8.5239
v  1.7091 196.8504 9.6930
v  -1.7091 196.8504 9.6930
v  -4.9213 196.8504 8.5239
v  -7.5398 196.8504 6.3266
v  -9.2489 196.8504 3.3663
v  -9.8425 196.8504 -0.0000
v  -9.2489 196.8504 -3.3663
v  -7.5398 196.8504 -6.3267
v  -4.9213 196.8504 -8.5239
v  -1.7091 196.8504 -9.6930
v  1.7091 196.8504 -9.6930
v  4.9213 196.8504 -8.5239
v  7.5398 196.8504 -6.3267
v  9.2489 196.8504 -3.3663
v  9.8425 196.8504 -0.0000
v  0.2713 236.2205 -0.0987
v  0.2887 236.2205 0.0000
v  0.2212 236.2205 -0.1856
v  0.1443 236.2205 -0.2500
v  0.0501 236.2205 -0.2843
v  -0.0501 236.2205 -0.2843
v  -0.1443 236.2205 -0.2500
v  -0.2212 236.2205 -0.1856
v  -0.2713 236.2205 -0.0987
v  -0.2887 236.2205 0.0000
v  -0.2713 236.2205 0.0987
v  -0.2212 236.2205 0.1856
v  -0.1443 236.2205 0.2500
v  -0.0501 236.2205 0.2843
v  0.0501 236.2205 0.2843
v  0.1443 236.2205 0.2500
v  0.2212 236.2205 0.1856
v  0.2713 236.2205 0.0987
# 72 vertices

vn 0.6975 -0.6701 0.2539
vn 0.5687 -0.6700 0.4772
vn 0.3712 -0.6700 0.6429
vn 0.1289 -0.6700 0.7311
vn -0.1289 -0.6700 0.7311
vn -0.3712 -0.6700 0.6429
vn -0.5687 -0.6700 0.4772
vn -0.6976 -0.6700 0.2539
vn -0.7423 -0.6701 0.0000
vn -0.6975 -0.6701 -0.2539
vn -0.5687 -0.6700 -0.4772
vn -0.3712 -0.6700 -0.6429
vn -0.1289 -0.6700 -0.7311
vn 0.1289 -0.6701 -0.7310
vn 0.3712 -0.6701 -0.6428
vn 0.5687 -0.6700 -0.4772
vn 0.6976 -0.6700 -0.2539
vn 0.7423 -0.6701 -0.0000
vn 0.6976 0.6700 -0.2539
vn 0.7423 0.6701 -0.0000
vn 0.5687 0.6700 -0.4772
vn 0.3712 0.6701 -0.6428
vn 0.1289 0.6701 -0.7310
vn -0.1289 0.6700 -0.7311
vn -0.3712 0.6700 -0.6429
vn -0.5687 0.6700 -0.4772
vn -0.6975 0.6701 -0.2539
vn -0.7423 0.6701 0.0000
vn -0.6976 0.6700 0.2539
vn -0.5687 0.6700 0.4772
vn -0.3712 0.6700 0.6429
vn -0.1289 0.6700 0.7311
vn 0.1289 0.6700 0.7311
vn 0.3712 0.6700 0.6429
vn 0.5687 0.6700 0.4772
vn 0.6975 0.6701 0.2539
vn 0.7661 -0.5790 0.2789
vn 0.6246 -0.5790 0.5241
vn 0.4077 -0.5790 0.7061
vn 0.1416 -0.5790 0.8029
vn -0.1416 -0.5790 0.8029
vn -0.4077 -0.5790 0.7061
vn -0.6246 -0.5790 0.5241
vn -0.7661 -0.5790 0.2789
vn -0.8153 -0.5790 -0.0000
vn -0.7661 -0.5790 -0.2789
vn -0.6246 -0.5790 -0.5241
vn -0.4077 -0.5790 -0.7061
vn -0.1416 -0.5790 -0.8029
vn 0.1416 -0.5790 -0.8029
vn 0.4077 -0.5790 -0.7061
vn 0.6246 -0.5790 -0.5241
vn 0.7661 -0.5790 -0.2789
vn 0.8153 -0.5790 0.0000
vn 0.6175 0.7538 -0.2247
vn 0.6571 0.7538 0.0000
vn 0.5034 0.7538 -0.4224
vn 0.3286 0.7538 -0.5691
vn 0.1141 0.7538 -0.6471
vn -0.1141 0.7538 -0.6471
vn -0.3286 0.7538 -0.5691
vn -0.5034 0.7538 -0.4224
vn -0.6175 0.7538 -0.2247
vn -0.6571 0.7538 -0.0000
vn -0.6175 0.7538 0.2247
vn -0.5034 0.7538 0.4224
vn -0.3286 0.7538 0.5691
vn -0.1141 0.7538 0.6471
vn 0.1141 0.7538 0.6471
vn 0.3286 0.7538 0.5691
vn 0.5034 0.7538 0.4224
vn 0.6175 0.7538 0.2247
# 72 vertex normals

vt 0.3400 0.0000 -0.0000
vt 0.1953 0.0000 -0.3473
vt 0.0874 0.0000 -0.6527
vt 0.0292 0.0000 -0.8794
vt 0.0278 0.0000 -1.0000
vt 0.0833 0.0000 -1.0000
vt 0.1891 0.0000 -0.8794
vt 0.3325 0.0000 -0.6527
vt 0.4960 0.0000 -0.3473
vt 0.6600 0.0000 0.0000
vt 0.8047 0.0000 0.3473
vt 0.9126 0.0000 0.6527
vt 0.9708 0.0000 0.8794
vt 0.9722 0.0000 1.0000
vt 0.9167 0.0000 1.0000
vt 0.8611 0.0000 1.0000
vt 0.8056 0.0000 1.0000
vt 0.7500 0.0000 1.0000
vt 0.8056 1.0000 1.0000
vt 0.7500 1.0000 1.0000
vt 0.8611 1.0000 1.0000
vt 0.9167 1.0000 1.0000
vt 0.9722 1.0000 1.0000
vt -0.0278 0.0000 1.0000
vt 0.0278 0.0000 1.0000
vt 0.0278 1.0000 1.0000
vt -0.0278 1.0000 1.0000
vt 0.0833 0.0000 1.0000
vt 0.0833 1.0000 1.0000
vt 0.1389 0.0000 1.0000
vt 0.1389 1.0000 1.0000
vt 0.1944 0.0000 1.0000
vt 0.1944 1.0000 1.0000
vt 0.2500 0.0000 1.0000
vt 0.2500 1.0000 1.0000
vt 0.3056 0.0000 1.0000
vt 0.3056 1.0000 1.0000
vt 0.3611 0.0000 1.0000
vt 0.3611 1.0000 1.0000
vt 0.4167 0.0000 1.0000
vt 0.4167 1.0000 1.0000
vt 0.4722 0.0000 1.0000
vt 0.4722 1.0000 1.0000
vt 0.5278 0.0000 1.0000
vt 0.5278 1.0000 1.0000
vt 0.5833 0.0000 1.0000
vt 0.5833 1.0000 1.0000
vt 0.6389 0.0000 1.0000
vt 0.6389 1.0000 1.0000
vt 0.6944 0.0000 1.0000
vt 0.6944 1.0000 1.0000
vt 0.9708 1.0000 0.8794
vt 0.9126 1.0000 0.6527
vt 0.8047 1.0000 0.3473
vt 0.6600 1.0000 0.0000
vt 0.4960 1.0000 -0.3473
vt 0.3325 1.0000 -0.6527
vt 0.1891 1.0000 -0.8794
vt 0.0833 1.0000 -1.0000
vt 0.0278 1.0000 -1.0000
vt 0.0292 1.0000 -0.8794
vt 0.0874 1.0000 -0.6527
vt 0.1953 1.0000 -0.3473
vt 0.3400 0.0000 0.0000
vt 0.6600 0.0000 -0.0000
vt 0.6600 1.0000 -0.0000
# 66 texture coords

o MoveZ
g MoveZ
usemtl z
s 1
f 1/1/1 2/2/2 3/3/3 4/4/4 5/5/5 6/6/6 7/7/7 8/8/8 9/9/9 10/10/10 11/11/11 12/12/12 13/13/13 14/14/14 15/15/15 16/16/16 17/17/17 18/18/18 
s 8
f 18/18/18 17/17/17 19/19/19 20/20/20 
f 17/17/17 16/16/16 21/21/21 19/19/19 
f 16/16/16 15/15/15 22/22/22 21/21/21 
f 15/15/15 14/14/14 23/23/23 22/22/22 
f 14/24/14 13/25/13 24/26/24 23/27/23 
f 13/25/13 12/28/12 25/29/25 24/26/24 
f 12/28/12 11/30/11 26/31/26 25/29/25 
f 11/30/11 10/32/10 27/33/27 26/31/26 
f 10/32/10 9/34/9 28/35/28 27/33/27 
f 9/34/9 8/36/8 29/37/29 28/35/28 
f 8/36/8 7/38/7 30/39/30 29/37/29 
f 7/38/7 6/40/6 31/41/31 30/39/30 
f 6/40/6 5/42/5 32/43/32 31/41/31 
f 5/42/5 4/44/4 33/45/33 32/43/32 
f 4/44/4 3/46/3 34/47/34 33/45/33 
f 3/46/3 2/48/2 35/49/35 34/47/34 
f 2/48/2 1/50/1 36/51/36 35/49/35 
f 1/50/1 18/18/18 20/20/20 36/51/36 
s 1
f 36/51/36 20/20/20 19/19/19 21/21/21 22/22/22 23/23/23 24/52/24 25/53/25 26/54/26 27/55/27 28/56/28 29/57/29 30/58/30 31/59/31 32/60/32 33/61/33 34/62/34 35/63/35 
f 37/64/37 38/2/38 39/3/39 40/4/40 41/5/41 42/6/42 43/7/43 44/8/44 45/9/45 46/65/46 47/11/47 48/12/48 49/13/49 50/14/50 51/15/51 52/16/52 53/17/53 54/18/54 
s 8
f 54/18/54 53/17/53 55/19/55 56/20/56 
f 53/17/53 52/16/52 57/21/57 55/19/55 
f 52/16/52 51/15/51 58/22/58 57/21/57 
f 51/15/51 50/14/50 59/23/59 58/22/58 
f 50/24/50 49/25/49 60/26/60 59/27/59 
f 49/25/49 48/28/48 61/29/61 60/26/60 
f 48/28/48 47/30/47 62/31/62 61/29/61 
f 47/30/47 46/32/46 63/33/63 62/31/62 
f 46/32/46 45/34/45 64/35/64 63/33/63 
f 45/34/45 44/36/44 65/37/65 64/35/64 
f 44/36/44 43/38/43 66/39/66 65/37/65 
f 43/38/43 42/40/42 67/41/67 66/39/66 
f 42/40/42 41/42/41 68/43/68 67/41/67 
f 41/42/41 40/44/40 69/45/69 68/43/68 
f 40/44/40 39/46/39 70/47/70 69/45/69 
f 39/46/39 38/48/38 71/49/71 70/47/70 
f 38/48/38 37/50/37 72/51/72 71/49/71 
f 37/50/37 54/18/54 56/20/56 72/51/72 
s 1
f 72/51/72 56/20/56 55/19/55 57/21/57 58/22/58 59/23/59 60/52/60 61/53/61 62/54/62 63/66/63 64/56/64 65/57/65 66/58/66 67/59/67 68/60/68 69/61/69 70/62/70 71/63/71 
# 40 polygons

